# Blender v2.91.0 OBJ File: ''
# www.blender.org
mtllib Road.mtl
o obj_0
v 0.000000 0.000000 50.000000
v -15.451000 0.000000 47.553001
v 0.000000 0.000000 20.003000
v -19.975000 0.000000 5.490000
v -16.990999 0.000000 11.345000
v -47.553001 0.000000 15.451000
v -50.000000 0.000000 0.000000
v -21.003000 0.000000 -1.000000
v -29.389000 0.000000 40.451000
v -40.451000 0.000000 29.389000
v -12.345000 0.000000 15.991000
v -16.990999 0.000000 -13.345000
v -16.990999 7.000000 -13.345000
v -19.975000 7.000000 -7.490000
v -19.975000 0.000000 -7.490000
v -15.451000 7.000000 -47.553001
v -29.389000 7.000000 -40.451000
v -12.345000 7.000000 -17.990999
v -12.345000 0.000000 -17.990999
v 47.553001 0.000000 15.451000
v 50.000000 0.000000 0.000000
v 50.000000 7.000000 0.000000
v 47.553001 7.000000 15.451000
v -21.003000 7.000000 -1.000000
v -50.000000 7.000000 0.000000
v -47.553001 7.000000 15.451000
v -19.975000 7.000000 5.490000
v -16.990999 7.000000 11.345000
v -40.451000 7.000000 29.389000
v -29.389000 7.000000 40.451000
v -12.345000 7.000000 15.991000
v -6.490000 7.000000 -20.975000
v 0.000000 7.000000 -22.002001
v 0.000000 7.000000 -50.000000
v 47.553001 0.000000 -15.451000
v -6.490000 0.000000 -20.975000
v -47.553001 0.000000 -15.451000
v 47.553001 7.000000 -15.451000
v 40.451000 0.000000 -29.389000
v 40.451000 7.000000 -29.389000
v -40.451000 0.000000 -29.389000
v 0.000000 0.000000 -22.002001
v 29.389000 0.000000 -40.451000
v 29.389000 7.000000 -40.451000
v 19.975000 0.000000 5.490000
v 19.975000 7.000000 5.490000
v 21.002001 7.000000 -1.000000
v 21.002001 0.000000 -1.000000
v 6.490000 0.000000 -20.975000
v 6.490000 7.000000 -20.975000
v -47.553001 7.000000 -15.451000
v 12.345000 7.000000 -17.990999
v 15.451000 7.000000 -47.553001
v 16.990999 7.000000 -13.345000
v 19.975000 7.000000 -7.490000
v 12.345000 0.000000 -17.990999
v 15.451000 0.000000 -47.553001
v 16.990999 0.000000 11.345000
v 16.990999 7.000000 11.345000
v 0.000000 0.000000 -50.000000
v 16.990999 0.000000 -13.345000
v -15.451000 0.000000 -47.553001
v -40.451000 7.000000 -29.389000
v 40.451000 0.000000 29.389000
v 19.975000 0.000000 -7.490000
v -15.451000 7.000000 47.553001
v 12.345000 0.000000 15.991000
v 12.345000 7.000000 15.991000
v -29.389000 0.000000 -40.451000
v 29.389000 0.000000 40.451000
v 0.000000 7.000000 50.000000
v 6.490000 0.000000 18.975000
v 6.490000 7.000000 18.975000
v 15.451000 0.000000 47.553001
v 15.451000 7.000000 47.553001
v -6.490000 0.000000 18.975000
v -6.490000 7.000000 18.975000
v 0.000000 7.000000 20.003000
v 29.389000 7.000000 40.451000
v 40.451000 7.000000 29.389000
vn 0.0000 -0.6735 0.7391
vn -0.2284 -0.6735 0.7030
vn 0.0000 -0.7441 -0.6681
vn 0.6354 -0.7441 -0.2065
vn 0.5405 -0.7440 -0.3927
vn -0.7030 -0.6735 0.2284
vn -0.7391 -0.6735 0.0000
vn 0.6681 -0.7441 0.0000
vn -0.4345 -0.6735 0.5980
vn -0.5980 -0.6735 0.4345
vn 0.3927 -0.7440 -0.5405
vn 0.5405 -0.7440 0.3927
vn 0.5405 0.7440 0.3927
vn 0.6354 0.7441 0.2065
vn 0.6354 -0.7441 0.2065
vn -0.2284 0.6735 -0.7030
vn -0.4345 0.6735 -0.5980
vn 0.3927 0.7440 0.5405
vn 0.3927 -0.7440 0.5405
vn 0.7030 -0.6735 0.2284
vn 0.7391 -0.6735 0.0000
vn 0.7391 0.6735 0.0000
vn 0.7030 0.6735 0.2284
vn 0.6681 0.7441 0.0000
vn -0.7391 0.6735 0.0000
vn -0.7030 0.6735 0.2284
vn 0.6354 0.7441 -0.2065
vn 0.5405 0.7440 -0.3927
vn -0.5980 0.6735 0.4345
vn -0.4345 0.6735 0.5980
vn 0.3927 0.7440 -0.5405
vn 0.2064 0.7441 0.6354
vn 0.0000 0.7440 0.6681
vn 0.0000 0.6735 -0.7391
vn 0.7030 -0.6735 -0.2284
vn 0.2064 -0.7441 0.6354
vn -0.7030 -0.6735 -0.2284
vn 0.7030 0.6735 -0.2284
vn 0.5980 -0.6735 -0.4345
vn 0.5980 0.6735 -0.4345
vn -0.5980 -0.6735 -0.4345
vn 0.0000 -0.7440 0.6681
vn 0.4345 -0.6735 -0.5980
vn 0.4345 0.6735 -0.5980
vn -0.6354 -0.7441 -0.2064
vn -0.6354 0.7441 -0.2064
vn -0.6681 0.7440 0.0000
vn -0.6681 -0.7440 0.0000
vn -0.2064 -0.7441 0.6354
vn -0.2064 0.7441 0.6354
vn -0.7030 0.6735 -0.2284
vn -0.3927 0.7440 0.5405
vn 0.2284 0.6735 -0.7030
vn -0.5405 0.7440 0.3927
vn -0.6354 0.7441 0.2064
vn -0.3927 -0.7440 0.5405
vn 0.2284 -0.6735 -0.7030
vn -0.5405 -0.7440 -0.3927
vn -0.5405 0.7440 -0.3927
vn 0.0000 -0.6735 -0.7391
vn -0.5405 -0.7440 0.3927
vn -0.2284 -0.6735 -0.7030
vn -0.5980 0.6735 -0.4345
vn 0.5980 -0.6735 0.4345
vn -0.6354 -0.7441 0.2064
vn -0.2284 0.6735 0.7030
vn -0.3927 -0.7440 -0.5405
vn -0.3927 0.7440 -0.5405
vn -0.4345 -0.6735 -0.5980
vn 0.4345 -0.6735 0.5980
vn 0.0000 0.6735 0.7391
vn -0.2065 -0.7441 -0.6354
vn -0.2065 0.7441 -0.6354
vn 0.2284 -0.6735 0.7030
vn 0.2284 0.6735 0.7030
vn 0.2065 -0.7441 -0.6354
vn 0.2065 0.7441 -0.6354
vn 0.0000 0.7441 -0.6681
vn 0.4345 0.6735 0.5980
vn 0.5980 0.6735 0.4345
usemtl color_2829873
s 1
f 1//1 2//2 3//3
f 4//4 5//5 6//6
f 6//6 7//7 4//4
f 8//8 4//4 7//7
f 9//9 10//10 11//11
f 12//12 13//13 14//14
f 12//12 14//14 15//15
f 5//5 11//11 10//10
f 10//10 6//6 5//5
f 16//16 17//17 18//18
f 19//19 18//18 13//13
f 19//19 13//13 12//12
f 20//20 21//21 22//22
f 20//20 22//22 23//23
f 15//15 24//24 8//8
f 25//25 26//26 27//27
f 28//28 27//27 26//26
f 26//26 29//29 28//28
f 30//30 31//31 29//29
f 32//32 16//16 18//18
f 33//33 34//34 32//32
f 22//22 21//21 35//35
f 36//36 32//32 18//18
f 36//36 18//18 19//19
f 7//7 37//37 8//8
f 35//35 38//38 22//22
f 35//35 39//39 40//40
f 35//35 40//40 38//38
f 37//37 41//41 15//15
f 42//42 33//33 32//32
f 42//42 32//32 36//36
f 24//24 25//25 27//27
f 39//39 43//43 44//44
f 39//39 44//44 40//40
f 45//45 46//46 47//47
f 45//45 47//47 48//48
f 49//49 50//50 33//33
f 49//49 33//33 42//42
f 25//25 24//24 51//51
f 34//34 16//16 32//32
f 34//34 33//33 50//50
f 52//52 53//53 50//50
f 40//40 44//44 54//54
f 38//38 40//40 55//55
f 34//34 50//50 53//53
f 56//56 52//52 50//50
f 56//56 50//50 49//49
f 48//48 21//21 45//45
f 43//43 57//57 53//53
f 43//43 53//53 44//44
f 58//58 59//59 46//46
f 58//58 46//46 45//45
f 25//25 7//7 6//6
f 25//25 6//6 26//26
f 55//55 47//47 38//38
f 54//54 55//55 40//40
f 52//52 54//54 44//44
f 53//53 52//52 44//44
f 57//57 60//60 34//34
f 57//57 34//34 53//53
f 6//6 10//10 29//29
f 6//6 29//29 26//26
f 61//61 54//54 52//52
f 61//61 52//52 56//56
f 60//60 62//62 16//16
f 60//60 16//16 34//34
f 10//10 9//9 30//30
f 10//10 30//30 29//29
f 13//13 18//18 17//17
f 17//17 63//63 13//13
f 14//14 13//13 63//63
f 14//14 63//63 51//51
f 14//14 51//51 24//24
f 20//20 64//64 58//58
f 65//65 55//55 54//54
f 65//65 54//54 61//61
f 2//2 66//66 30//30
f 2//2 30//30 9//9
f 67//67 68//68 59//59
f 67//67 59//59 58//58
f 62//62 69//69 16//16
f 64//64 70//70 67//67
f 16//16 69//69 17//17
f 55//55 65//65 47//47
f 48//48 47//47 65//65
f 1//1 71//71 66//66
f 1//1 66//66 2//2
f 72//72 73//73 68//68
f 72//72 68//68 67//67
f 69//69 41//41 63//63
f 69//69 63//63 17//17
f 71//71 1//1 74//74
f 71//71 74//74 75//75
f 76//76 77//77 78//78
f 76//76 78//78 3//3
f 73//73 72//72 3//3
f 73//73 3//3 78//78
f 41//41 37//37 51//51
f 41//41 51//51 63//63
f 74//74 70//70 79//79
f 74//74 79//79 75//75
f 11//11 31//31 77//77
f 11//11 77//77 76//76
f 70//70 64//64 80//80
f 70//70 80//80 79//79
f 37//37 7//7 25//25
f 37//37 25//25 51//51
f 45//45 20//20 58//58
f 67//67 58//58 64//64
f 48//48 35//35 21//21
f 20//20 45//45 21//21
f 80//80 20//20 23//23
f 5//5 28//28 31//31
f 5//5 31//31 11//11
f 22//22 38//38 47//47
f 22//22 47//47 46//46
f 59//59 23//23 46//46
f 68//68 80//80 59//59
f 23//23 59//59 80//80
f 73//73 79//79 68//68
f 22//22 46//46 23//23
f 15//15 14//14 24//24
f 64//64 20//20 80//80
f 4//4 27//27 28//28
f 4//4 28//28 5//5
f 66//66 71//71 78//78
f 30//30 66//66 77//77
f 31//31 30//30 77//77
f 28//28 29//29 31//31
f 78//78 77//77 66//66
f 71//71 75//75 78//78
f 73//73 78//78 75//75
f 79//79 73//73 75//75
f 80//80 68//68 79//79
f 9//9 76//76 2//2
f 11//11 76//76 9//9
f 76//76 3//3 2//2
f 72//72 74//74 3//3
f 72//72 67//67 70//70
f 70//70 74//74 72//72
f 1//1 3//3 74//74
f 27//27 4//4 8//8
f 27//27 8//8 24//24
f 62//62 60//60 36//36
f 57//57 43//43 56//56
f 61//61 39//39 65//65
f 48//48 65//65 35//35
f 42//42 36//36 60//60
f 36//36 19//19 62//62
f 49//49 42//42 60//60
f 60//60 57//57 49//49
f 56//56 49//49 57//57
f 61//61 56//56 43//43
f 43//43 39//39 61//61
f 35//35 65//65 39//39
f 69//69 12//12 41//41
f 12//12 15//15 41//41
f 69//69 62//62 19//19
f 19//19 12//12 69//69
f 15//15 8//8 37//37
